<svg id="Layer_1" data-name="Layer 1" xmlns="http://www.w3.org/2000/svg" viewBox="0 0 512 512"><defs><style>.cls-1{fill:#e6e6e8;}</style></defs><title>user</title><path class="cls-1" d="M248,326.34c29.72,0,55.46-11.12,76.49-33.06s31.69-48.79,31.69-79.8-10.66-57.85-31.69-79.79S277.69,100.63,248,100.63s-55.47,11.12-76.5,33.06-31.69,48.79-31.69,79.79,10.66,57.86,31.7,79.8S218.25,326.34,248,326.34Z"/><path class="cls-1" d="M434.25,448.61c-.21-1.3-.4-2.58-.62-3.89a242.55,242.55,0,0,0-7-29.77,150.75,150.75,0,0,0-11.73-27.76,104.58,104.58,0,0,0-17.69-24.05,77.72,77.72,0,0,0-25.42-16.66,84.63,84.63,0,0,0-32.43-6.12c-4.59,0-9,2-17.59,7.78-5.27,3.58-11.43,7.73-18.32,12.32-5.88,3.91-13.85,7.57-23.7,10.89a88.35,88.35,0,0,1-58,0c-9.84-3.31-17.81-7-23.69-10.89-6.81-4.54-13-8.69-18.33-12.33-8.55-5.81-13-7.77-17.58-7.77a84.41,84.41,0,0,0-32.43,6.13,77.65,77.65,0,0,0-25.42,16.65,104.26,104.26,0,0,0-17.68,24.05A150.46,150.46,0,0,0,74.94,415a243,243,0,0,0-7,29.77c-.22,1.31-.41,2.59-.62,3.89Z"/><rect class="cls-1" x="67.34" y="448.61" width="366.91" height="63.39"/></svg>