<svg id="Layer_1" data-name="Layer 1" xmlns="http://www.w3.org/2000/svg" viewBox="0 0 512 512"><defs><style>.cls-1{fill:#6f8b4d;}.cls-2{fill:#fff;}</style></defs><title>user</title><path class="cls-1" d="M236.91,239.58A36.09,36.09,0,0,0,263.83,228a40.92,40.92,0,0,0,0-56.17,37,37,0,0,0-53.84,0A40.95,40.95,0,0,0,210,228,36.09,36.09,0,0,0,236.91,239.58Z"/><circle class="cls-1" cx="288.9" cy="272.17" r="18.37"/><path class="cls-2" d="M287.4,274.42h-6.15v-3.68h6.15v-6.2h3.68v6.2h6.17v3.68h-6.17v6.12H287.4Z"/><path class="cls-1" d="M267.26,271.33a20.87,20.87,0,0,1,19.83-20.84,27.37,27.37,0,0,0-6.61-3.82,29.77,29.77,0,0,0-11.41-2.15c-1.62,0-3.17.7-6.19,2.74-1.86,1.26-4,2.72-6.45,4.33a35.81,35.81,0,0,1-8.34,3.83,31,31,0,0,1-20.41,0,36,36,0,0,1-8.34-3.83c-2.4-1.6-4.58-3.06-6.45-4.34-3-2-4.58-2.73-6.19-2.73a29.52,29.52,0,0,0-11.41,2.16,27.31,27.31,0,0,0-8.95,5.85,36.71,36.71,0,0,0-6.22,8.47,52.55,52.55,0,0,0-4.11,9.79,87,87,0,0,0-2.47,10.47l-.21,1.37h97.25A20.77,20.77,0,0,1,267.26,271.33Z"/></svg>