<svg id="Layer_1" data-name="Layer 1" xmlns="http://www.w3.org/2000/svg" viewBox="0 0 512 512"><defs><style>.cls-1{fill:#6f8b4d;}</style></defs><title>user2</title><path class="cls-1" d="M298.63,272.71a24.91,24.91,0,0,1-22.14,3.17,2.21,2.21,0,0,0-2,.28l-9.9,7,2.55,3.59,9-6.38a29.39,29.39,0,0,0,25-4,30.35,30.35,0,0,0,3.68-2.91l-3-3.23a27,27,0,0,1-3.15,2.5Z"/><path class="cls-1" d="M276.46,239.85a20,20,0,0,0-9.12,19.09l-27.91,17.89L211.52,259a19.93,19.93,0,0,0-9.13-19.08A21,21,0,0,0,188,236.29a16.31,16.31,0,0,0-14,20.81,21,21,0,0,0,8.7,12,20,20,0,0,0,21.14,1.31l21.66,15.38L204.88,299a8.63,8.63,0,0,0-2.66,11.91l.14.21a8.64,8.64,0,0,0,12,2.32l.17-.12,24.9-17.66,24.9,17.68a8.65,8.65,0,1,0,10.22-14A5.42,5.42,0,0,0,274,299l-20.64-13.21L275,270.37a20,20,0,0,0,21.14-1.3c9.05-6.11,12-17.63,6.58-25.69s-17.23-9.64-26.29-3.53ZM212,309.71a4.33,4.33,0,0,1-6-1.09,4.22,4.22,0,0,1,1.12-5.87l.11-.07,22.12-14.19,6.25,4.44Zm61.51-4.32a4.25,4.25,0,0,1-6.62,4.33l-61.73-43.81a2.21,2.21,0,0,0-2.57,0,15.27,15.27,0,0,1-17.42-.51,16.66,16.66,0,0,1-6.9-9.44,11.89,11.89,0,0,1,7.89-14.85,12.74,12.74,0,0,1,2.46-.48,16.67,16.67,0,0,1,11.34,2.87,15.26,15.26,0,0,1,7,15.95,2.21,2.21,0,0,0,.94,2.39l63.75,40.83A4.19,4.19,0,0,1,273.49,305.39Zm20.21-40a15.27,15.27,0,0,1-17.42.5,2.21,2.21,0,0,0-2.57,0l-24.36,17.29-5.83-3.74L271,261.83a2.21,2.21,0,0,0,.95-2.39,15.33,15.33,0,0,1,7-15.95c7.05-4.75,16.1-3.7,20.18,2.33s1.64,14.84-5.4,19.59Z"/><path class="cls-1" d="M197.44,187.32,195,183.65a28.64,28.64,0,0,0-11.18,33.4l4.15-1.48a24.23,24.23,0,0,1,9.47-28.25Z"/><path class="cls-1" d="M192.65,223.5a24.51,24.51,0,0,1-2.81-3.89l-3.81,2.2a29.39,29.39,0,0,0,3.31,4.61Z"/><path class="cls-1" d="M263.6,258.58l6.27-31.34a19.81,19.81,0,0,0-1.82-39.55A19.56,19.56,0,0,0,255.79,192a19.78,19.78,0,0,0-32.72,0,19.58,19.58,0,0,0-12.26-4.26A19.81,19.81,0,0,0,209,227.23l6.27,31.35,4.31-.86-1.23-6.18h42.18l-1.23,6.16ZM253,247.13l1.84-12.89-4.36-.63-1.93,13.52h-6.9V222.91h-4.4v24.22h-6.9l-1.93-13.52-4.36.63,1.84,12.89h-8.42L213,224.68a2.21,2.21,0,0,0-2.16-1.77,15.41,15.41,0,1,1,11.19-26,2.22,2.22,0,0,0,3.58-.55,15.37,15.37,0,0,1,27.7,0,2.2,2.2,0,0,0,2.94,1,2.09,2.09,0,0,0,.64-.46,15.4,15.4,0,1,1,11.19,26,2.21,2.21,0,0,0-2.16,1.77l-4.49,22.45Z"/></svg>