<svg id="Layer_1" data-name="Layer 1" xmlns="http://www.w3.org/2000/svg" viewBox="0 0 512 512"><defs><style>.cls-1{fill:#6f8b4d;}</style></defs><title>user2</title><path class="cls-1" d="M302.25,274.15a26.39,26.39,0,0,1-23.49,3.37,2.33,2.33,0,0,0-2.14.29l-10.51,7.46,2.7,3.81,9.54-6.78A31.22,31.22,0,0,0,304.86,278a32.27,32.27,0,0,0,3.9-3.09l-3.17-3.43a27.56,27.56,0,0,1-3.34,2.65Z"/><path class="cls-1" d="M278.72,239.28a21.25,21.25,0,0,0-9.67,20.26l-29.62,19-29.62-19a21.14,21.14,0,0,0-9.69-20.26,22.31,22.31,0,0,0-15.23-3.8A17.3,17.3,0,0,0,170,257.59a22.31,22.31,0,0,0,9.23,12.69,21.15,21.15,0,0,0,22.43,1.39l23,16.32-21.88,14a9.16,9.16,0,0,0-2.82,12.64l.15.23a9.18,9.18,0,0,0,12.74,2.45l.17-.12,26.43-18.74,26.43,18.76a9.18,9.18,0,0,0,10.84-14.83c-.19-.14-.39-.27-.59-.39l-21.9-14,23-16.33a21.14,21.14,0,0,0,22.42-1.38c9.61-6.48,12.74-18.71,7-27.26s-18.28-10.23-27.91-3.75ZM210.3,313.42a4.61,4.61,0,0,1-6.34-1.16,4.49,4.49,0,0,1,1.2-6.23l.11-.07,23.48-15.06,6.63,4.71Zm65.28-4.59a4.52,4.52,0,0,1-7,4.6L203,266.93a2.34,2.34,0,0,0-2.73,0,16.2,16.2,0,0,1-18.48-.54,17.7,17.7,0,0,1-7.32-10,12.61,12.61,0,0,1,8.37-15.75,12.82,12.82,0,0,1,2.61-.51,17.71,17.71,0,0,1,12,3,16.19,16.19,0,0,1,7.42,16.93,2.33,2.33,0,0,0,1,2.54L273.59,306A4.48,4.48,0,0,1,275.58,308.83ZM297,266.4a16.18,16.18,0,0,1-18.48.54,2.34,2.34,0,0,0-2.73,0L250,285.27l-6.19-4,29.14-18.69a2.34,2.34,0,0,0,1-2.54,16.27,16.27,0,0,1,7.42-16.93c7.48-5,17.09-3.92,21.41,2.48s1.75,15.74-5.73,20.78Z"/><path class="cls-1" d="M194.87,183.54l-2.59-3.89a30.37,30.37,0,0,0-11.86,35.43l4.41-1.56a25.69,25.69,0,0,1,10-30Z"/><path class="cls-1" d="M189.78,221.94a26.19,26.19,0,0,1-3-4.13l-4.05,2.33a30.25,30.25,0,0,0,3.52,4.88Z"/><path class="cls-1" d="M265.08,259.16l6.66-33.26a21,21,0,0,0-1.94-42,20.73,20.73,0,0,0-13,4.52,21,21,0,0,0-34.73,0,20.78,20.78,0,0,0-13-4.52,21,21,0,0,0-1.93,42l6.65,33.27,4.58-.92-1.31-6.56h44.76l-1.3,6.54ZM253.81,247l1.95-13.69-4.62-.66-2,14.35h-7.32v-25.7H237.1V247h-7.32l-2.05-14.35-4.63.66,2,13.69h-8.95l-4.76-23.83a2.33,2.33,0,0,0-2.29-1.87,16.36,16.36,0,1,1,0-32.71,16.18,16.18,0,0,1,11.87,5.14,2.34,2.34,0,0,0,3.31.09,2.32,2.32,0,0,0,.49-.67,16.32,16.32,0,0,1,29.4,0,2.34,2.34,0,0,0,3.12,1.08,2.39,2.39,0,0,0,.68-.5,16.18,16.18,0,0,1,11.87-5.14,16.36,16.36,0,1,1,0,32.71,2.34,2.34,0,0,0-2.29,1.87L262.75,247Z"/></svg>