<svg id="Layer_1" data-name="Layer 1" xmlns="http://www.w3.org/2000/svg" viewBox="0 0 512 512"><defs><style>.cls-1{fill:#6f8b4d;}</style></defs><title>user2</title><path class="cls-1" d="M269.17,227.47l-1.53-5a10.94,10.94,0,0,0-20.72,0l-1.53,5a28.25,28.25,0,0,0-.79,13.11,12.34,12.34,0,0,0,6.35,8.6l-1.71,38.32a7.55,7.55,0,0,0,1.9,5.87,8.33,8.33,0,0,0,11.77.53c.18-.17.36-.34.53-.53a7.43,7.43,0,0,0,1.9-5.71l-1.72-38.49a12.31,12.31,0,0,0,6.34-8.59A28.25,28.25,0,0,0,269.17,227.47Zm-3.9,12.28a7.58,7.58,0,0,1-4.95,5.7,2.37,2.37,0,0,0-1.54,2.34L260.59,288a2.76,2.76,0,0,1-.72,2.16,3.68,3.68,0,0,1-5.18,0,2.85,2.85,0,0,1-.7-2.32l1.8-40.09a2.39,2.39,0,0,0-1.55-2.34,7.58,7.58,0,0,1-5-5.7,23.57,23.57,0,0,1,.66-10.88l1.53-5a6.18,6.18,0,0,1,11.6,0l1.53,5A23.57,23.57,0,0,1,265.27,239.75Z"/><path class="cls-1" d="M232.24,215a2.39,2.39,0,0,0-2.38,2.38v20.47l-6.45,6.46a2.34,2.34,0,0,0-.7,1.8l2.08,41.73a3.23,3.23,0,0,1-.9,2.43,3.35,3.35,0,0,1-4.75,0l0,0a3.26,3.26,0,0,1-.9-2.43l2.1-41.73a2.38,2.38,0,0,0-.69-1.8l-6.46-6.46V217.4a2.39,2.39,0,0,0-4.77,0v21.46a2.39,2.39,0,0,0,.7,1.69l6.4,6.4-2,40.68a8.05,8.05,0,0,0,16.09.78q0-.39,0-.78l-2-40.68,6.4-6.4a2.39,2.39,0,0,0,.7-1.69V217.4A2.39,2.39,0,0,0,232.24,215Z"/><path class="cls-1" d="M217.94,215a2.39,2.39,0,0,0-2.39,2.38v19.08a2.39,2.39,0,0,0,4.77,0V217.4A2.38,2.38,0,0,0,217.94,215Z"/><path class="cls-1" d="M225.09,215a2.39,2.39,0,0,0-2.38,2.38v19.08a2.39,2.39,0,0,0,4.77,0V217.4A2.39,2.39,0,0,0,225.09,215Z"/><path class="cls-1" d="M239.4,179.25a71.53,71.53,0,1,0,71.53,71.53A71.53,71.53,0,0,0,239.4,179.25Zm0,138.29a66.76,66.76,0,1,1,66.76-66.76A66.76,66.76,0,0,1,239.4,317.54Z"/><path class="cls-1" d="M247.14,295.54a2.39,2.39,0,0,0-2.61-2.14h-.08a43.74,43.74,0,0,1-10.1,0,2.39,2.39,0,1,0-.56,4.74,48.87,48.87,0,0,0,11.21,0A2.39,2.39,0,0,0,247.14,295.54Z"/><path class="cls-1" d="M275.88,220.06a2.39,2.39,0,0,0-3.36-.3h0a2.38,2.38,0,0,0-.29,3.36,42.91,42.91,0,0,1-2.53,58.05,2.39,2.39,0,0,0,3.37,3.38A47.69,47.69,0,0,0,275.88,220.06Z"/><path class="cls-1" d="M223.42,210.77Z"/><path class="cls-1" d="M250.64,204.43a48.17,48.17,0,0,0-28.06,1.72,2.39,2.39,0,0,0,.84,4.62,2.19,2.19,0,0,0,.83-.16,43.26,43.26,0,0,1,25.27-1.54,2.39,2.39,0,0,0,1.12-4.64Z"/><path class="cls-1" d="M209,281.06a42.91,42.91,0,0,1-4.32-55.52,2.39,2.39,0,1,0-3.81-2.87l0,.06a47.68,47.68,0,0,0,4.79,61.71,2.39,2.39,0,0,0,3.38-3.38Z"/></svg>