<svg id="Layer_1" data-name="Layer 1" xmlns="http://www.w3.org/2000/svg" viewBox="0 0 512 512"><defs><style>.cls-1{fill:#e6e6e8;}</style></defs><title>user</title><path class="cls-1" d="M331.53,225.07l18.24-1.16h.1a42.92,42.92,0,0,0,32-18.68l14.42-21.15A85.34,85.34,0,0,0,410,121.44a19.26,19.26,0,0,0-18.07-16,85.31,85.31,0,0,0-60.53,21.1l-19.27,16.85a42.91,42.91,0,0,0-14.72,34,.28.28,0,0,0,0,.09l1,18.25A25.7,25.7,0,0,1,291.3,215L140.73,369.64a21.91,21.91,0,0,0-5.86,16.24,25.14,25.14,0,0,0,25.49,24.45c.67,0,1.33,0,2-.08a21.87,21.87,0,0,0,15.44-7.79l135.48-168A25.7,25.7,0,0,1,331.53,225.07Zm-25.48,3.55-135.47,168a12.68,12.68,0,0,1-9,4.39,15.89,15.89,0,0,1-17.45-15.47,12.64,12.64,0,0,1,3.25-9.4L298,221.44a35,35,0,0,0,9.75-26.24l-1-18.2a33.69,33.69,0,0,1,11.54-26.63l19.27-16.85a76.18,76.18,0,0,1,54-18.81,10,10,0,0,1,9.34,8.28,76.12,76.12,0,0,1-12.2,55.83L374.19,200a33.7,33.7,0,0,1-25.06,14.65L331,215.78A35,35,0,0,0,306.05,228.62Z"/><path class="cls-1" d="M402.61,368.47l-101-92a4.65,4.65,0,1,0-6.26,6.88l100.93,91.93a12.65,12.65,0,0,1,3.83,9.2A15.88,15.88,0,0,1,383.66,401a12.6,12.6,0,0,1-9.18-3.81l-90-98.76a4.65,4.65,0,1,0-6.88,6.27l90,98.78a21.86,21.86,0,0,0,15.86,6.83H384a25.17,25.17,0,0,0,25.48-26A21.88,21.88,0,0,0,402.61,368.47Z"/><path class="cls-1" d="M156.94,224.19a43.11,43.11,0,0,0,28.18,11.39h.09l18.28.06a25.63,25.63,0,0,1,18.77,8.28l8.05,8.83a4.65,4.65,0,0,0,6.88-6.26l-8.06-8.85a35,35,0,0,0-25.61-11.31l-18.23-.06a33.77,33.77,0,0,1-21.83-8.73l-53-63a1.59,1.59,0,0,1,.1-2.17,1.57,1.57,0,0,1,1.13-.47,1.6,1.6,0,0,1,1.14.47l48.2,48.21a12.24,12.24,0,0,0,17.28,0L184,195h0l10.06-10.06h0l5.66-5.66a12.23,12.23,0,0,0,0-17.29l-48.2-48.2a1.61,1.61,0,0,1,2.17-2.37l62.95,53a33.73,33.73,0,0,1,8.74,21.84l.06,18.22A35,35,0,0,0,236.78,230l8.62,7.85a4.65,4.65,0,1,0,6.27-6.88l-8.61-7.84a25.73,25.73,0,0,1-8.3-18.79l0-18.27a.34.34,0,0,0,0-.1,43.08,43.08,0,0,0-11.39-28.18,5.44,5.44,0,0,0-.42-.41L159.7,104.25A10.91,10.91,0,0,0,145,120.32l48.2,48.2a2.92,2.92,0,0,1,0,4.13L190.79,175,137.07,121.3a4.65,4.65,0,0,0-6.58,6.58l53.72,53.72-3.48,3.48L127,131.36a4.65,4.65,0,0,0-6.57,6.58l53.72,53.72L171.77,194a2.93,2.93,0,0,1-4.12,0l-48.2-48.21a10.92,10.92,0,0,0-16.07,14.75l53.15,63.18C156.66,223.91,156.8,224.05,156.94,224.19Z"/></svg>