<svg id="Layer_1" data-name="Layer 1" xmlns="http://www.w3.org/2000/svg" viewBox="0 0 512 512"><defs><style>.cls-1{fill:#6f8b4d;}.cls-2{fill:#fff;}</style></defs><title>food</title><path class="cls-1" d="M275.78,215.58l7.84-.5h0a18.46,18.46,0,0,0,13.75-8L303.6,198a36.59,36.59,0,0,0,5.88-26.91,8.25,8.25,0,0,0-7.76-6.88,36.66,36.66,0,0,0-26,9.06l-8.28,7.24a18.46,18.46,0,0,0-6.32,14.62v0l.45,7.84a11.06,11.06,0,0,1-3.07,8.27L193.8,277.69a9.46,9.46,0,0,0-2.52,7,10.8,10.8,0,0,0,11,10.5l.86,0a9.41,9.41,0,0,0,6.63-3.35l58.21-72.17A11,11,0,0,1,275.78,215.58Zm-10.95,1.52-58.2,72.17a5.41,5.41,0,0,1-3.85,1.88,7,7,0,0,1-5.2-1.68,7.14,7.14,0,0,1-2.3-5,5.42,5.42,0,0,1,1.4-4L261.36,214a15,15,0,0,0,4.19-11.28l-.44-7.81a14.46,14.46,0,0,1,4.95-11.45l8.28-7.24a32.79,32.79,0,0,1,23.19-8.08,4.3,4.3,0,0,1,4,3.56,32.67,32.67,0,0,1-5.24,24l-6.19,9.09a14.5,14.5,0,0,1-10.77,6.29l-7.81.5A15,15,0,0,0,264.83,217.1Z"/><path class="cls-1" d="M200.77,215.2a18.52,18.52,0,0,0,12.1,4.89h0l7.86,0a11,11,0,0,1,8.06,3.56l3.46,3.79a2,2,0,0,0,3-2.69l-3.47-3.8a15,15,0,0,0-11-4.86l-7.83,0a14.47,14.47,0,0,1-9.38-3.75l-22.76-27.05a.68.68,0,0,1,.05-.93.69.69,0,0,1,1,0l20.71,20.71a5.26,5.26,0,0,0,7.43,0l2.43-2.43h0l4.32-4.32h0l2.44-2.43a5.26,5.26,0,0,0,0-7.42l-20.71-20.71a.69.69,0,0,1,0-1,.68.68,0,0,1,.93,0l27.05,22.75a14.56,14.56,0,0,1,3.75,9.38l0,7.83a15.06,15.06,0,0,0,4.87,11l3.71,3.38a2,2,0,0,0,2.69-3l-3.7-3.37a11,11,0,0,1-3.57-8.07l0-7.85v0a18.53,18.53,0,0,0-4.9-12.11,1,1,0,0,0-.18-.17L202,163.67a4.69,4.69,0,0,0-6.33,6.9l20.71,20.71a1.25,1.25,0,0,1,0,1.77l-1,1L192.23,171a2,2,0,0,0-2.83,2.83l23.08,23.08L211,198.4l-23.08-23.08a2,2,0,0,0-2.83,2.82l23.08,23.08-1,1a1.25,1.25,0,0,1-1.77,0l-20.71-20.71a4.69,4.69,0,0,0-6.9,6.34L200.59,215Z"/><circle class="cls-1" cx="300.95" cy="283.78" r="22.93"/><path class="cls-1" d="M277.84,271.54,255.58,247.1a2,2,0,0,0-3,2.7l24,26.39A23.31,23.31,0,0,1,277.84,271.54Z"/><path class="cls-1" d="M284.11,262.37a24.31,24.31,0,0,1,3.27-2.43l-24.44-22.26a2,2,0,0,0-2.69,3Z"/><path class="cls-2" d="M299.08,286.6h-7.67V282h7.67v-7.74h4.6V282h7.7v4.6h-7.7v7.63h-4.6Z"/></svg>