<svg id="Layer_1" data-name="Layer 1" xmlns="http://www.w3.org/2000/svg" viewBox="0 0 512 512"><defs><style>.cls-1{fill:#6f8b4d;}.cls-2{fill:#fff;}</style></defs><title>user</title><path class="cls-1" d="M237.81,235.8a26.51,26.51,0,0,0,19.76-8.54,30,30,0,0,0,0-41.23,27.13,27.13,0,0,0-39.52,0,30,30,0,0,0,0,41.23A26.53,26.53,0,0,0,237.81,235.8Z"/><circle class="cls-1" cx="275.97" cy="259.71" r="13.48"/><path class="cls-2" d="M274.87,261.37h-4.51v-2.7h4.51v-4.55h2.71v4.55h4.53v2.7h-4.53v4.49h-2.71Z"/><path class="cls-1" d="M260.09,259.1a15.3,15.3,0,0,1,14.55-15.29,19.55,19.55,0,0,0-4.85-2.81,21.86,21.86,0,0,0-8.38-1.58c-1.18,0-2.32.51-4.54,2l-4.73,3.18a26.34,26.34,0,0,1-6.12,2.81,22.79,22.79,0,0,1-15,0,26.34,26.34,0,0,1-6.12-2.81c-1.76-1.17-3.36-2.24-4.73-3.18-2.21-1.51-3.36-2-4.54-2a21.86,21.86,0,0,0-8.38,1.58,20.22,20.22,0,0,0-6.57,4.3,27.12,27.12,0,0,0-4.57,6.22,38.67,38.67,0,0,0-3,7.18,61.33,61.33,0,0,0-1.81,7.69c-.06.34-.11.67-.16,1h71.39A15.27,15.27,0,0,1,260.09,259.1Z"/></svg>